{
	"asset":{
		"generator":"Khronos glTF Blender I/O v4.0.44",
		"version":"2.0"
	},
	"scene":0,
	"scenes":[
		{
			"name":"Scene",
			"nodes":[
				0,
				1,
				2
			]
		}
	],
	"nodes":[
		{
			"mesh":0,
			"name":"Wall",
			"translation":[
				-11.49501895904541,
				0,
				1.2648241519927979
			]
		},
		{
			"mesh":1,
			"name":"Room",
			"translation":[
				12.713065147399902,
				0,
				1.2648241519927979
			]
		},
		{
			"mesh":2,
			"name":"Floor",
			"translation":[
				-11.49501895904541,
				0,
				1.2648241519927979
			]
		}
	],
	"materials":[
		{
			"doubleSided":true,
			"name":"Wall_material",
			"pbrMetallicRoughness":{}
		},
		{
			"doubleSided":true,
			"name":"Floor_material",
			"pbrMetallicRoughness":{
				"metallicFactor":0,
				"roughnessFactor":0.5
			}
		}
	],
	"meshes":[
		{
			"name":"Wall1",
			"primitives":[
				{
					"attributes":{
						"POSITION":0,
						"NORMAL":1,
						"TEXCOORD_0":2
					},
					"indices":3,
					"material":0
				}
			]
		},
		{
			"name":"Room1",
			"primitives":[
				{
					"attributes":{
						"POSITION":4,
						"NORMAL":5,
						"TEXCOORD_0":6
					},
					"indices":7,
					"material":0
				}
			]
		},
		{
			"name":"Floor1",
			"primitives":[
				{
					"attributes":{
						"POSITION":8,
						"NORMAL":9,
						"TEXCOORD_0":10
					},
					"indices":11,
					"material":1
				}
			]
		}
	],
	"accessors":[
		{
			"bufferView":0,
			"componentType":5126,
			"count":116,
			"max":[
				24.219999313354492,
				4,
				5.409999847412109
			],
			"min":[
				0,
				0,
				-12.24000072479248
			],
			"type":"VEC3"
		},
		{
			"bufferView":1,
			"componentType":5126,
			"count":116,
			"type":"VEC3"
		},
		{
			"bufferView":2,
			"componentType":5126,
			"count":116,
			"type":"VEC2"
		},
		{
			"bufferView":3,
			"componentType":5123,
			"count":174,
			"type":"SCALAR"
		},
		{
			"bufferView":4,
			"componentType":5126,
			"count":12,
			"max":[
				0,
				4,
				0
			],
			"min":[
				-4.559999942779541,
				0,
				-0.10000000149011612
			],
			"type":"VEC3"
		},
		{
			"bufferView":5,
			"componentType":5126,
			"count":12,
			"type":"VEC3"
		},
		{
			"bufferView":6,
			"componentType":5126,
			"count":12,
			"type":"VEC2"
		},
		{
			"bufferView":7,
			"componentType":5123,
			"count":18,
			"type":"SCALAR"
		},
		{
			"bufferView":8,
			"componentType":5126,
			"count":30,
			"max":[
				24.219999313354492,
				0,
				5.409999847412109
			],
			"min":[
				0,
				0,
				-12.24000072479248
			],
			"type":"VEC3"
		},
		{
			"bufferView":9,
			"componentType":5126,
			"count":30,
			"type":"VEC3"
		},
		{
			"bufferView":10,
			"componentType":5126,
			"count":30,
			"type":"VEC2"
		},
		{
			"bufferView":11,
			"componentType":5123,
			"count":84,
			"type":"SCALAR"
		}
	],
	"bufferViews":[
		{
			"buffer":0,
			"byteLength":1392,
			"byteOffset":0,
			"target":34962
		},
		{
			"buffer":0,
			"byteLength":1392,
			"byteOffset":1392,
			"target":34962
		},
		{
			"buffer":0,
			"byteLength":928,
			"byteOffset":2784,
			"target":34962
		},
		{
			"buffer":0,
			"byteLength":348,
			"byteOffset":3712,
			"target":34963
		},
		{
			"buffer":0,
			"byteLength":144,
			"byteOffset":4060,
			"target":34962
		},
		{
			"buffer":0,
			"byteLength":144,
			"byteOffset":4204,
			"target":34962
		},
		{
			"buffer":0,
			"byteLength":96,
			"byteOffset":4348,
			"target":34962
		},
		{
			"buffer":0,
			"byteLength":36,
			"byteOffset":4444,
			"target":34963
		},
		{
			"buffer":0,
			"byteLength":360,
			"byteOffset":4480,
			"target":34962
		},
		{
			"buffer":0,
			"byteLength":360,
			"byteOffset":4840,
			"target":34962
		},
		{
			"buffer":0,
			"byteLength":240,
			"byteOffset":5200,
			"target":34962
		},
		{
			"buffer":0,
			"byteLength":168,
			"byteOffset":5440,
			"target":34963
		}
	],
	"buffers":[
		{
			"byteLength":5608,
			"uri":"SimpleRoom.bin"
		}
	]
}
