{
	"asset":{
		"generator":"Khronos glTF Blender I/O v4.0.6",
		"version":"2.0"
	},
	"scene":0,
	"scenes":[
		{
			"name":"Scene",
			"nodes":[
				0
			]
		}
	],
	"nodes":[
		{
			"mesh":0,
			"name":"Navmesh"
		}
	],
	"meshes":[
		{
			"name":"Navmesh.001",
			"primitives":[
				{
					"attributes":{
						"POSITION":0,
						"NORMAL":1
					},
					"indices":2
				}
			]
		}
	],
	"accessors":[
		{
			"bufferView":0,
			"componentType":5126,
			"count":29,
			"max":[
				12.204981803894043,
				0.20000000298023224,
				6.07482385635376
			],
			"min":[
				-10.895018577575684,
				0.20000000298023224,
				-10.425176620483398
			],
			"type":"VEC3"
		},
		{
			"bufferView":1,
			"componentType":5126,
			"count":29,
			"type":"VEC3"
		},
		{
			"bufferView":2,
			"componentType":5123,
			"count":69,
			"type":"SCALAR"
		}
	],
	"bufferViews":[
		{
			"buffer":0,
			"byteLength":348,
			"byteOffset":0,
			"target":34962
		},
		{
			"buffer":0,
			"byteLength":348,
			"byteOffset":348,
			"target":34962
		},
		{
			"buffer":0,
			"byteLength":138,
			"byteOffset":696,
			"target":34963
		}
	],
	"buffers":[
		{
			"byteLength":836,
			"uri":"NavMeshSimple.bin"
		}
	]
}
